# xmcd
#
# Track frame offsets:
#	150
#	19487
#	33199
#	49127
#	63162
#	76839
#	90421
#	109642
#	127251
#	137367
#	152765
#	170803
#
# Disc length: 2443 seconds
# Revision: 0
# Processed by: cddbd v1.5.2PL0 Copyright (c) Steve Scherf et al.
# Submitted via: dBpowerAMP V12.0
#
DISCID=9509890c
DTITLE=Hot October - Hot October
DYEAR=2016
DGENRE=Country
TTITLE0=Dixie
TTITLE1=Lost in Your Love Blues
TTITLE2=If I Knew Your Name
TTITLE3=Hot October
TTITLE4=Intuition
TTITLE5=Salt Creek
TTITLE6=Elmyra
TTITLE7=Gravel Yard
TTITLE8=Rovin' Gambler
TTITLE9=Big Texas Women
TTITLE10=Fade
TTITLE11=Back Up and Push
EXTD=
EXTT0=
EXTT1=
EXTT2=
EXTT3=
EXTT4=
EXTT5=
EXTT6=
EXTT7=
EXTT8=
EXTT9=
EXTT10=
EXTT11=
PLAYORDER=
